<?xml version="1.0" encoding="UTF-8"?>
<svg version="1.1" xmlns="http://www.w3.org/2000/svg" width="720" height="320">
<path d="M0 0 C1.4943734 -0.00226215 1.4943734 -0.00226215 3.01893616 -0.00457001 C4.16304962 -0.0158493 5.30716309 -0.0271286 6.48594666 -0.03874969 C8.37024887 -0.02660431 8.37024887 -0.02660431 10.2926178 -0.01421356 C11.62808496 -0.01963332 12.96354614 -0.02675516 14.29899597 -0.0354538 C17.92715198 -0.05370806 21.55485365 -0.04661133 25.18301773 -0.03393745 C28.9772948 -0.0238205 32.77153259 -0.03319949 36.56581116 -0.03948212 C42.93803401 -0.04676236 49.31007151 -0.03716106 55.68226624 -0.01811981 C63.05270332 0.00364982 70.42269784 -0.00340129 77.7931242 -0.02542543 C84.11763393 -0.04356882 90.44201032 -0.04614301 96.76653767 -0.03567076 C100.54547697 -0.02942991 104.32420816 -0.0286162 108.10313416 -0.04181671 C111.65571211 -0.05335938 115.2077187 -0.0453795 118.76023483 -0.02223969 C120.68834901 -0.01441478 122.61651144 -0.02632207 124.54460144 -0.03874969 C125.6887149 -0.0274704 126.83282837 -0.0161911 128.01161194 -0.00457001 C129.00786087 -0.0030619 130.0041098 -0.0015538 131.0305481 0 C133.51527405 0.50336456 133.51527405 0.50336456 135.37097168 2.31245422 C137.09445345 5.61227614 136.35171586 7.96457228 135.51527405 11.50336456 C134.85527405 12.49336456 134.19527405 13.48336456 133.51527405 14.50336456 C135.43799447 16.97543368 137.21413958 19.25183615 139.62415314 21.2648468 C142.17931897 24.28939381 142.01818055 26.14086355 142.02320862 30.06964874 C142.02944858 30.72769611 142.03568854 31.38574347 142.0421176 32.06373167 C142.05806422 34.2672818 142.04543813 36.46972824 142.03285217 38.67328644 C142.0382726 40.25357966 142.04539482 41.83386784 142.05409241 43.41414642 C142.07233832 47.70548945 142.06525313 51.99644812 142.05257607 56.28779793 C142.04245491 60.7769411 142.05183928 65.26605117 142.05812073 69.75519562 C142.06539972 77.29419621 142.05580285 84.8330401 142.03675842 92.37201691 C142.01498915 101.09038395 142.02204035 109.80837685 142.04406404 118.52673483 C142.0622109 126.0096512 142.06477988 133.49245488 142.05430937 140.97538614 C142.04807048 145.44570709 142.0472496 149.91585213 142.06045532 154.3861618 C142.07200286 158.58877785 142.06400851 162.79091112 142.0408783 166.99347496 C142.03558529 168.53661993 142.03711514 170.07980547 142.04592896 171.62293434 C142.05684566 173.72819973 142.04317095 175.8319141 142.02320862 177.93708038 C142.02170052 179.1154673 142.02019241 180.29385422 142.01863861 181.50794983 C141.51527405 184.50336456 141.51527405 184.50336456 139.81045437 186.88159084 C137.05716616 188.82706346 135.63289903 189.00780088 132.28445435 189.01802826 C131.22599808 189.03075272 130.16754181 189.04347717 129.07701111 189.05658722 C127.92105438 189.05006134 126.76509766 189.04353546 125.57411194 189.03681183 C124.35260941 189.0454274 123.13110687 189.05404297 121.87258911 189.06291962 C118.52515203 189.08173458 115.17870448 189.08247373 111.83129048 189.07359815 C109.03553417 189.06848661 106.23986657 189.07578219 103.44411939 189.08307022 C96.84772288 189.10007043 90.25155768 189.09650266 83.65516663 189.07978058 C76.85326753 189.06286031 70.05201024 189.07869144 63.25018126 189.11100346 C57.40713508 189.1377077 51.5642886 189.14497316 45.72118753 189.13648838 C42.23276333 189.13156128 38.74472524 189.13376216 35.25634956 189.15427589 C31.36592141 189.17605875 27.47626557 189.15722478 23.58583069 189.13446808 C22.43189819 189.14616028 21.2779657 189.15785248 20.08906555 189.16989899 C12.24016039 189.07631378 12.24016039 189.07631378 8.42102051 186.05767059 C7.79212418 185.2147496 7.16322784 184.37182861 6.51527405 183.50336456 C5.24683655 182.76086456 5.24683655 182.76086456 3.95277405 182.00336456 C0.95983681 180.16155703 -0.53720929 178.43590241 -2.48472595 175.50336456 C-2.98694801 172.34808064 -2.98694801 172.34808064 -2.99024963 168.72743988 C-2.99938481 167.72471984 -2.99938481 167.72471984 -3.00870454 166.70174283 C-3.02428101 164.46899985 -3.01152706 162.23733323 -2.99888611 160.00458527 C-3.00434776 158.40119503 -3.01158967 156.79781002 -3.02047729 155.19443512 C-3.03580746 151.74583623 -3.03861953 148.29753481 -3.03171158 144.84890938 C-3.0209306 139.39964016 -3.03829895 133.95068235 -3.05952454 128.50145721 C-3.08977823 119.88728701 -3.10147914 111.27320902 -3.10510099 102.65899009 C-3.11175335 87.21946656 -3.14066571 71.78000639 -3.19019735 56.34056157 C-3.20673179 50.91941653 -3.21210516 45.49840557 -3.20860696 40.07723773 C-3.20817117 36.71198589 -3.21571535 33.3467851 -3.22528267 29.98154831 C-3.22797435 28.4165931 -3.22719875 26.85162767 -3.2227726 25.28667641 C-3.21716405 23.15709885 -3.22364097 21.02789377 -3.23316956 18.89833832 C-3.23350504 17.70465795 -3.23384052 16.51097757 -3.23418617 15.28112507 C-3.19838125 12.36255697 -3.19838125 12.36255697 -5.48472595 10.50336456 C-5.83608393 7.27087114 -5.87614361 5.22375626 -4.30917358 2.33979797 C-2.48472595 0.50336456 -2.48472595 0.50336456 0 0 Z " fill="#FFFFFF" transform="translate(77.48472595214844,65.49663543701172)"/>
<path d="M0 0 C12 0 12 0 14.65820312 2.00415039 C15.19380859 2.92188232 15.72941406 3.83961426 16.28125 4.78515625 C16.90515625 5.7920752 17.5290625 6.79899414 18.171875 7.83642578 C18.77515625 8.88040527 19.3784375 9.92438477 20 11 C21.25160785 12.90036223 22.51192759 14.79501771 23.78125 16.68359375 C25.02385689 18.599605 26.26344125 20.51757984 27.5 22.4375 C32.6066328 30.33396693 37.78288996 38.17433494 43 46 C43.33 30.82 43.66 15.64 44 0 C47.3 0 50.6 0 54 0 C54 22.11 54 44.22 54 67 C42 67 42 67 39.4296875 65.15625 C38.91664063 64.2796875 38.40359375 63.403125 37.875 62.5 C37.24851562 61.49066406 36.62203125 60.48132813 35.9765625 59.44140625 C35.32429688 58.30574219 34.67203125 57.17007813 34 56 C33.24297421 54.77621904 32.47971531 53.55627647 31.7109375 52.33984375 C30.03701854 49.69073179 28.38235795 47.03100455 26.73828125 44.36328125 C23.24319751 38.74041842 19.54513224 33.25377941 15.84667969 27.76342773 C15.35973633 27.03969971 14.87279297 26.31597168 14.37109375 25.5703125 C13.93724365 24.92852051 13.50339355 24.28672852 13.05639648 23.62548828 C12 22 12 22 11 20 C10.67 35.51 10.34 51.02 10 67 C6.7 67 3.4 67 0 67 C0 44.89 0 22.78 0 0 Z " fill="#FEFEFE" transform="translate(250,72)"/>
<path d="M0 0 C6.67841524 5.12297238 9.88936738 11.7299347 11.390625 19.90234375 C12.79720114 31.4930721 12.44819561 44.27485674 5.32421875 54.03125 C-1.54281923 61.56418257 -9.87796762 64.2934025 -19.8984375 64.80859375 C-28.78957494 64.53848325 -36.70104103 62.18050661 -42.984375 55.71484375 C-51.78951418 44.92461739 -52.07711646 33.08485689 -50.984375 19.71484375 C-49.35082743 11.02867464 -44.94587176 4.43364787 -37.89453125 -0.8515625 C-26.61148102 -8.22651712 -11.12820164 -7.20704398 0 0 Z M-34.984375 10.71484375 C-40.06771585 19.42914236 -40.11075295 29.92109955 -38.48828125 39.70703125 C-36.70288174 46.34427914 -34.02083808 50.54594155 -28.359375 54.58984375 C-22.2972533 56.61055098 -16.42199974 56.88851492 -10.609375 54.08984375 C-4.10420251 48.2042115 -1.09035396 43.05833793 -0.6484375 34.2265625 C-0.20662995 20.22308356 -0.20662995 20.22308356 -6.41015625 8.08203125 C-11.13572515 3.80826093 -15.66344782 2.27427075 -22 2.46484375 C-27.64643456 3.17620558 -31.39570638 6.54422886 -34.984375 10.71484375 Z " fill="#FEFEFE" transform="translate(298.984375,186.28515625)"/>
<path d="M0 0 C1.14662109 -0.02416992 1.14662109 -0.02416992 2.31640625 -0.04882812 C9.09524029 -0.05458265 14.95241088 1.42543934 20.4375 5.625 C25.30411456 10.49161456 26.125 13.37002246 26.125 20.3125 C22.165 20.3125 18.205 20.3125 14.125 20.3125 C13.856875 19.219375 13.58875 18.12625 13.3125 17 C12.07511667 12.95893713 12.07511667 12.95893713 9.125 10.3125 C2.96578669 8.43051816 -4.0516753 8.47185381 -9.875 11.3125 C-12.02155934 13.83237401 -11.88075546 15.47365287 -12 18.8125 C-11.1875 22.54166667 -11.1875 22.54166667 -7.875 24.4375 C-2.80199354 26.59720384 2.59299726 27.90119587 7.89331055 29.38500977 C13.24124213 30.92842011 17.76823129 32.75860466 22.125 36.3125 C23.300625 37.240625 23.300625 37.240625 24.5 38.1875 C27.83881914 42.5536481 28.3293172 47.03363565 28 52.375 C27.18403661 58.49472546 24.69398833 62.26672152 19.875 66.0625 C11.535938 71.54547734 0.91701991 71.35541812 -8.625 69.625 C-14.4390284 68.12664785 -18.93971836 65.09891382 -23.3125 61.0625 C-25.54023979 57.14167796 -25.60713401 53.79925539 -25.875 49.3125 C-21.915 49.3125 -17.955 49.3125 -13.875 49.3125 C-13.6275 50.405625 -13.38 51.49875 -13.125 52.625 C-11.83930219 56.41780855 -11.28786067 57.45093964 -7.875 59.3125 C-1.90021862 61.30409379 4.83083652 61.10359086 10.75 59.0625 C13.31295334 57.17400806 14.35522636 56.39159457 15.125 53.3125 C15.45048832 49.75586774 15.45048832 49.75586774 14.125 46.3125 C7.42900053 42.37773743 0.2129106 40.27970825 -7.18554688 38.04492188 C-14.09515641 35.85529217 -19.94716397 33.54628947 -23.8125 27.0625 C-25.29483127 21.83074258 -26.13013897 17.23599243 -23.92578125 12.1015625 C-18.22040519 2.41862143 -10.76908281 -0.04494609 0 0 Z " fill="#FEFEFE" transform="translate(405.875,180.6875)"/>
<path d="M0 0 C1.14662109 -0.02416992 1.14662109 -0.02416992 2.31640625 -0.04882812 C9.09524029 -0.05458265 14.95241088 1.42543934 20.4375 5.625 C25.30411456 10.49161456 26.125 13.37002246 26.125 20.3125 C22.165 20.3125 18.205 20.3125 14.125 20.3125 C13.856875 19.219375 13.58875 18.12625 13.3125 17 C12.07511667 12.95893713 12.07511667 12.95893713 9.125 10.3125 C2.96578669 8.43051816 -4.0516753 8.47185381 -9.875 11.3125 C-12.02155934 13.83237401 -11.88075546 15.47365287 -12 18.8125 C-11.1875 22.54166667 -11.1875 22.54166667 -7.875 24.4375 C-2.80199354 26.59720384 2.59299726 27.90119587 7.89331055 29.38500977 C13.24124213 30.92842011 17.76823129 32.75860466 22.125 36.3125 C23.300625 37.240625 23.300625 37.240625 24.5 38.1875 C27.83881914 42.5536481 28.3293172 47.03363565 28 52.375 C27.18403661 58.49472546 24.69398833 62.26672152 19.875 66.0625 C11.535938 71.54547734 0.91701991 71.35541812 -8.625 69.625 C-14.4390284 68.12664785 -18.93971836 65.09891382 -23.3125 61.0625 C-25.54023979 57.14167796 -25.60713401 53.79925539 -25.875 49.3125 C-21.915 49.3125 -17.955 49.3125 -13.875 49.3125 C-13.6275 50.405625 -13.38 51.49875 -13.125 52.625 C-11.83930219 56.41780855 -11.28786067 57.45093964 -7.875 59.3125 C-1.90021862 61.30409379 4.83083652 61.10359086 10.75 59.0625 C13.31295334 57.17400806 14.35522636 56.39159457 15.125 53.3125 C15.45048832 49.75586774 15.45048832 49.75586774 14.125 46.3125 C7.42900053 42.37773743 0.2129106 40.27970825 -7.18554688 38.04492188 C-14.09515641 35.85529217 -19.94716397 33.54628947 -23.8125 27.0625 C-25.29483127 21.83074258 -26.13013897 17.23599243 -23.92578125 12.1015625 C-18.22040519 2.41862143 -10.76908281 -0.04494609 0 0 Z " fill="#FEFFFE" transform="translate(344.875,180.6875)"/>
<path d="M0 0 C3.63 0 7.26 0 11 0 C11.33 8.25 11.66 16.5 12 25 C14.31 24.01 16.62 23.02 19 22 C25.76012078 21.09702358 32.39580331 21.16248199 38.35546875 24.73828125 C43.04365692 28.33515721 46.73286787 33.184944 48 39 C48.83118516 49.20194386 48.66471497 57.5282558 42.25 65.8125 C37.42964307 70.96205203 32.9291721 72.16110565 26.0625 72.4375 C20.40349634 72.30953258 15.17467088 71.17467088 11 67 C10.67 68.32 10.34 69.64 10 71 C6.37 71 2.74 71 -1 71 C-1.02312545 61.89040835 -1.04091612 52.78082674 -1.05181217 43.6712122 C-1.05704056 39.44168629 -1.0641374 35.2121804 -1.07543945 30.98266602 C-1.08626991 26.90431457 -1.09227717 22.82598243 -1.09487724 18.74761772 C-1.09673121 17.18822361 -1.10035127 15.6288306 -1.10573006 14.06944466 C-1.11294262 11.89270838 -1.11399085 9.71605286 -1.11352539 7.53930664 C-1.115746 6.29798477 -1.11796661 5.0566629 -1.12025452 3.77772522 C-1 1 -1 1 0 0 Z M13.32421875 33.46484375 C10.02885241 37.62231541 10.26219935 41.88637043 10.375 47 C10.35566406 47.8765625 10.33632813 48.753125 10.31640625 49.65625 C10.34885124 53.96494448 10.57821211 57.07317333 13.29296875 60.53125 C16.80547125 63.73457118 19.31877341 64.70511958 24 65 C28.06708913 64.36202523 30.16652451 63.09403192 32.8125 60.0625 C35.974236 55.6360696 36.1817803 52.52569179 36.25 47.1875 C36.27578125 45.98480469 36.3015625 44.78210938 36.328125 43.54296875 C35.88009621 38.7053246 34.15418771 35.47258431 31.1875 31.6875 C25.37392598 27.2027429 18.47775039 28.71757592 13.32421875 33.46484375 Z " fill="#FEFEFE" transform="translate(463,68)"/>
<path d="M0 0 C3.63 0 7.26 0 11 0 C11.33 13.86 11.66 27.72 12 42 C16.80195026 36.87002957 16.80195026 36.87002957 21.6027832 31.73901367 C22.20437256 31.09681885 22.80596191 30.45462402 23.42578125 29.79296875 C24.03848877 29.1383667 24.65119629 28.48376465 25.2824707 27.80932617 C25.84925537 27.21224854 26.41604004 26.6151709 27 26 C27.50853516 25.4328125 28.01707031 24.865625 28.54101562 24.28125 C30.88721842 22.22086308 33.15874659 22.71479828 36.1875 22.8125 C37.27417969 22.83957031 38.36085938 22.86664063 39.48046875 22.89453125 C40.72763672 22.94673828 40.72763672 22.94673828 42 23 C36.44964797 29.78376359 30.23557973 35.85522968 24 42 C27.9545149 48.30720098 32.38458842 54.15277674 37.0402832 59.94970703 C39.89744076 63.52331195 42.51563297 67.1568125 45 71 C39.88801296 72.15986261 34.95679576 72.98727104 30 71 C24.74578501 66.47709973 20.97472257 60.4590785 17.27416992 54.65234375 C16.85369385 54.10707031 16.43321777 53.56179687 16 53 C15.34 53 14.68 53 14 53 C11.06552643 55.93447357 11.53841577 59.18259456 11.375 63.125 C11.31699219 64.25615234 11.31699219 64.25615234 11.2578125 65.41015625 C11.16348969 67.27303184 11.08065338 69.13648255 11 71 C7.04 71 3.08 71 -1 71 C-1.02312545 61.89040835 -1.04091612 52.78082674 -1.05181217 43.6712122 C-1.05704056 39.44168629 -1.0641374 35.2121804 -1.07543945 30.98266602 C-1.08626991 26.90431457 -1.09227717 22.82598243 -1.09487724 18.74761772 C-1.09673121 17.18822361 -1.10035127 15.6288306 -1.10573006 14.06944466 C-1.11294262 11.89270838 -1.11399085 9.71605286 -1.11352539 7.53930664 C-1.115746 6.29798477 -1.11796661 5.0566629 -1.12025452 3.77772522 C-1 1 -1 1 0 0 Z " fill="#FEFEFE" transform="translate(638,68)"/>
<path d="M0 0 C5.68152712 5.38667741 7.82554739 12.42307893 8.125 20.125 C7.66221667 29.26497084 4.48448901 35.8406816 -2.3125 42 C-9.42778394 46.41147604 -17.55621415 47.1044581 -25.71484375 45.5390625 C-32.22219253 43.64803807 -37.0436235 40.25223944 -40.92578125 34.6875 C-44.69243614 27.38761672 -45.01374293 18.4106259 -43.1953125 10.50390625 C-40.56699182 3.04924451 -35.31529907 -1.62338829 -28.3125 -5 C-18.7754722 -8.26266741 -7.8472951 -6.04865445 0 0 Z M-28.3125 6 C-32.53449665 12.11461583 -32.94218625 19.64286428 -31.6875 26.8125 C-30.40255945 31.72652942 -27.76841846 34.52034726 -23.42578125 37.13671875 C-19.6917755 38.66207045 -16.15234761 37.9273335 -12.3125 37 C-8.00267868 34.6577058 -6.29034646 31.80475082 -4.81640625 27.2734375 C-3.27953699 20.33965526 -3.66769529 13.21338755 -7.3125 7 C-11.50563219 3.01141084 -14.37202269 1.62721997 -20.21484375 1.72265625 C-23.72153514 2.18629701 -25.70175777 3.69283245 -28.3125 6 Z " fill="#FEFFFE" transform="translate(620.3125,95)"/>
<path d="M0 0 C5.68152712 5.38667741 7.82554739 12.42307893 8.125 20.125 C7.66221667 29.26497084 4.48448901 35.8406816 -2.3125 42 C-9.42778394 46.41147604 -17.55621415 47.1044581 -25.71484375 45.5390625 C-32.22219253 43.64803807 -37.0436235 40.25223944 -40.92578125 34.6875 C-44.69243614 27.38761672 -45.01374293 18.4106259 -43.1953125 10.50390625 C-40.56699182 3.04924451 -35.31529907 -1.62338829 -28.3125 -5 C-18.7754722 -8.26266741 -7.8472951 -6.04865445 0 0 Z M-28.3125 6 C-32.53449665 12.11461583 -32.94218625 19.64286428 -31.6875 26.8125 C-30.40255945 31.72652942 -27.76841846 34.52034726 -23.42578125 37.13671875 C-19.6917755 38.66207045 -16.15234761 37.9273335 -12.3125 37 C-8.00267868 34.6577058 -6.29034646 31.80475082 -4.81640625 27.2734375 C-3.27953699 20.33965526 -3.66769529 13.21338755 -7.3125 7 C-11.50563219 3.01141084 -14.37202269 1.62721997 -20.21484375 1.72265625 C-23.72153514 2.18629701 -25.70175777 3.69283245 -28.3125 6 Z " fill="#FFFEFF" transform="translate(562.3125,95)"/>
<path d="M0 0 C4.45464612 3.85105858 7.95988501 8.10601508 9 14 C9 17.63 9 21.26 9 25 C-2.88 25 -14.76 25 -27 25 C-24.23492515 33.41648801 -24.23492515 33.41648801 -19 39 C-13.93786049 40.68737984 -10.05369339 41.00201541 -5.25390625 38.66015625 C-2.78442478 37.17146175 -0.37471418 35.63504911 2 34 C4.31 35.32 6.62 36.64 9 38 C6.62906875 43.53217291 2.25730094 45.63102557 -3 48 C-9.98921603 50.22763858 -18.06170922 49.70642897 -24.86328125 47.10546875 C-30.134933 44.37808768 -33.95020957 40.794803 -36.9375 35.6875 C-39.49991251 26.7944213 -40.19924112 17.1677173 -35.80859375 8.703125 C-27.7758207 -2.94111278 -12.64740133 -7.04975519 0 0 Z M-23.75 9.8125 C-25.4339499 12.46602353 -25.4339499 12.46602353 -26 18 C-18.08 18 -10.16 18 -2 18 C-3.11541707 10.8259268 -3.11541707 10.8259268 -7.75 5.6875 C-14.29360937 3.6880638 -19.07463642 4.97015915 -23.75 9.8125 Z " fill="#FEFEFE" transform="translate(444,92)"/>
<path d="M0 0 C5.68152712 5.38667741 7.82554739 12.42307893 8.125 20.125 C7.66221667 29.26497084 4.48448901 35.8406816 -2.3125 42 C-9.42778394 46.41147604 -17.55621415 47.1044581 -25.71484375 45.5390625 C-32.22219253 43.64803807 -37.0436235 40.25223944 -40.92578125 34.6875 C-44.69243614 27.38761672 -45.01374293 18.4106259 -43.1953125 10.50390625 C-40.56699182 3.04924451 -35.31529907 -1.62338829 -28.3125 -5 C-18.7754722 -8.26266741 -7.8472951 -6.04865445 0 0 Z M-28.3125 6 C-32.53449665 12.11461583 -32.94218625 19.64286428 -31.6875 26.8125 C-30.40255945 31.72652942 -27.76841846 34.52034726 -23.42578125 37.13671875 C-19.6917755 38.66207045 -16.15234761 37.9273335 -12.3125 37 C-8.00267868 34.6577058 -6.29034646 31.80475082 -4.81640625 27.2734375 C-3.27953699 20.33965526 -3.66769529 13.21338755 -7.3125 7 C-11.50563219 3.01141084 -14.37202269 1.62721997 -20.21484375 1.72265625 C-23.72153514 2.18629701 -25.70175777 3.69283245 -28.3125 6 Z " fill="#FEFEFE" transform="translate(358.3125,95)"/>
<path d="M0 0 C3.96 0 7.92 0 12 0 C12 3.96 12 7.92 12 12 C15.3 12 18.6 12 22 12 C22 14.31 22 16.62 22 19 C18.7 19 15.4 19 12 19 C12.33 30.22 12.66 41.44 13 53 C15.97 53 18.94 53 22 53 C22 55.64 22 58.28 22 61 C16.78865373 62.73711542 11.75270015 62.66139628 6.6875 60.75 C3.53518445 58.69732941 1.65604633 56.92500401 0.43188477 53.33300781 C-0.17188848 50.07147185 -0.1108148 46.92532993 -0.09765625 43.609375 C-0.0962413 42.90476135 -0.09482635 42.20014771 -0.09336853 41.47418213 C-0.08778933 39.23274416 -0.07524073 36.99140757 -0.0625 34.75 C-0.05748231 33.22656395 -0.05291987 31.70312632 -0.04882812 30.1796875 C-0.03782674 26.45309228 -0.02057646 22.72655604 0 19 C-2.64 19 -5.28 19 -8 19 C-8 16.69 -8 14.38 -8 12 C-5.36 12 -2.72 12 0 12 C0 8.04 0 4.08 0 0 Z " fill="#FFFFFE" transform="translate(377,79)"/>
</svg>
