<?xml version="1.0" encoding="UTF-8"?>
<svg version="1.1" xmlns="http://www.w3.org/2000/svg" width="2640" height="733">
<path d="M0 0 C50.40499571 -0.03422134 100.80999223 -0.06606456 151.21499634 -0.08468628 C152.33320891 -0.08510045 152.33320891 -0.08510045 153.47401163 -0.08552299 C169.67343772 -0.09150818 185.87286393 -0.09704863 202.07229032 -0.10213066 C210.01596701 -0.10462543 217.95964367 -0.10721852 225.90332031 -0.10986328 C226.69383058 -0.1101248 227.48434085 -0.11038632 228.29880597 -0.11065576 C253.94228831 -0.1191853 279.58576186 -0.13421302 305.22923887 -0.15259444 C331.5713477 -0.17144245 357.91345166 -0.18376689 384.25556713 -0.18782998 C387.97236606 -0.18840633 391.68916498 -0.1890576 395.4059639 -0.18975449 C396.13751566 -0.18988933 396.86906741 -0.19002418 397.62278741 -0.19016311 C409.42012223 -0.19253069 421.21744205 -0.20181793 433.01477075 -0.21366407 C444.86212298 -0.2254138 456.70945895 -0.22977975 468.5568168 -0.22700275 C474.98122723 -0.22571579 481.40559345 -0.22775324 487.82999611 -0.23841095 C493.70213308 -0.24808191 499.57419573 -0.24867534 505.44633599 -0.24179779 C507.57960256 -0.2409467 509.71287361 -0.24353569 511.84613125 -0.24976636 C514.7282857 -0.25770023 517.61016579 -0.25352326 520.49231529 -0.24609566 C521.75748236 -0.2539767 521.75748236 -0.2539767 523.04820836 -0.26201695 C528.7717084 -0.2282916 528.7717084 -0.2282916 531 2 C533.06874034 2.6425235 533.06874034 2.6425235 535 3 C535 3.99 535 4.98 535 6 C535.99 6 536.98 6 538 6 C541.53048619 12.10129657 542.63421621 16.55529529 542.5 23.5625 C542.51546875 24.37396484 542.5309375 25.18542969 542.546875 26.02148438 C542.50954922 31.80231389 541.33646401 35.26296808 538 40 C537.34 40.33 536.68 40.66 536 41 C535.319375 42.2684375 535.319375 42.2684375 534.625 43.5625 C534.08875 44.366875 533.5525 45.17125 533 46 C531.68 46 530.36 46 529 46 C529 46.99 529 47.98 529 49 C528.01 49 527.02 49 526 49 C526 50.32 526 51.64 526 53 C526.99 53.33 527.98 53.66 529 54 C529 54.66 529 55.32 529 56 C529.721875 56.020625 530.44375 56.04125 531.1875 56.0625 C535.36708132 57.45569377 536.7594529 60.35814854 539 64 C539.8971875 65.3921875 539.8971875 65.3921875 540.8125 66.8125 C542 69 542 69 542 71 C543.98 71.66 545.96 72.32 548 73 C548 73.66 548 74.32 548 75 C548.99 75 549.98 75 551 75 C551 75.99 551 76.98 551 78 C551.928125 78.185625 551.928125 78.185625 552.875 78.375 C555 79 555 79 557 81 C557 82.32 557 83.64 557 85 C557.99 85 558.98 85 560 85 C560 293.23 560 501.46 560 716 C559.01 716 558.02 716 557 716 C556.87625 716.78375 556.7525 717.5675 556.625 718.375 C556 721 556 721 554 723 C553.01 723 552.02 723 551 723 C551 723.99 551 724.98 551 726 C550.01 726 549.02 726 548 726 C548 726.66 548 727.32 548 728 C385.31 728 222.62 728 55 728 C55 727.34 55 726.68 55 726 C54.2575 725.938125 53.515 725.87625 52.75 725.8125 C49.06754292 724.72450132 48.06049038 723.19731265 46 720 C44.8125 716.875 44.8125 716.875 44 714 C43.505 712.515 43.505 712.515 43 711 C42.071875 710.896875 41.14375 710.79375 40.1875 710.6875 C36.97085535 709.9937139 35.83984081 709.65754784 34 707 C34 706.01 34 705.02 34 704 C32.02 703.67 30.04 703.34 28 703 C27.67 701.35 27.34 699.7 27 698 C25.0509375 698.0309375 25.0509375 698.0309375 23.0625 698.0625 C21.70834367 698.08399454 20.35243917 698.07148199 19 698 C18 697 18 697 17.9375 694.4375 C17.958125 693.633125 17.97875 692.82875 18 692 C16.02 692 14.04 692 12 692 C12 691.01 12 690.02 12 689 C11.23221113 688.76152168 10.46442226 688.52304335 9.67336706 688.27733842 C5.67410245 686.36648435 4.76763359 683.74768306 2.9785804 679.83230513 C1.37785856 675.19933611 1.31803192 670.86240712 1.38196754 665.99863434 C1.37286432 664.39684257 1.37286432 664.39684257 1.36357719 662.76269138 C1.34935733 659.1899158 1.37074152 655.61825971 1.39199829 652.04553223 C1.38910121 649.45619877 1.38400988 646.86686699 1.37691438 644.27754164 C1.36503403 638.65088487 1.37165369 633.0244881 1.39051437 627.39785385 C1.41848163 619.03125973 1.41770076 610.66483918 1.41113811 602.29820969 C1.40092871 588.22248792 1.41409956 574.14687862 1.44078445 560.07118225 C1.46715702 546.13516999 1.48360386 532.19920602 1.48667526 518.26316833 C1.48687384 517.3962929 1.48707241 516.52941746 1.487277 515.63627307 C1.48824084 511.23371612 1.48903843 506.83115915 1.48977904 502.42860216 C1.4953917 471.25217465 1.52493547 440.0758105 1.56787109 408.89941406 C1.60954704 378.61881397 1.63787603 348.338244 1.64990234 318.05761719 C1.65027691 317.12421958 1.65065148 316.19082196 1.6510374 315.22913957 C1.65404545 307.7203822 1.65700667 300.2116248 1.65988123 292.70286738 C1.67230417 260.33694941 1.69529945 227.97103828 1.72057095 195.60512809 C1.72531322 189.4971136 1.72969145 183.38909891 1.73394823 177.28108406 C1.74688672 158.95057501 1.76307243 140.62007736 1.78893264 122.28958148 C1.79957598 114.70666642 1.80876153 107.12375762 1.81350327 99.54083633 C1.81784999 92.61066876 1.82717525 85.68052455 1.84016471 78.75036782 C1.8440852 76.2324803 1.84630366 73.7145895 1.84672292 71.19669896 C1.84755902 67.79598517 1.85444766 64.39533838 1.86298561 60.99463654 C1.86178783 59.99842879 1.86059006 59.00222105 1.85935599 57.97582519 C1.86288441 57.07657369 1.86641282 56.17732219 1.87004817 55.25082064 C1.87101088 54.47221903 1.8719736 53.69361742 1.87296549 52.89142182 C2 51 2 51 3 49 C2.01 49 1.02 49 0 49 C0 48.01 0 47.02 0 46 C-0.99 46 -1.98 46 -3 46 C-3.33 44.02 -3.66 42.04 -4 40 C-4.99 40 -5.98 40 -7 40 C-7 38.68 -7 37.36 -7 36 C-7.66 36 -8.32 36 -9 36 C-9 27.42 -9 18.84 -9 10 C-8.34 10 -7.68 10 -7 10 C-7 8.68 -7 7.36 -7 6 C-6.01 6 -5.02 6 -4 6 C-4 5.01 -4 4.02 -4 3 C-3.01 3 -2.02 3 -1 3 C-0.67 2.01 -0.34 1.02 0 0 Z " fill="#272727" transform="translate(140,2)"/>
<path d="M0 0 C14.52 0 29.04 0 44 0 C54.63294576 11.60589504 54.63294576 11.60589504 57.06640625 17.63671875 C61.07643446 26.82939198 66.61769491 34.86605461 72.23580933 43.13943481 C75.209284 47.53944076 78.11647901 51.98286342 81.03125 56.421875 C82.20674771 58.206567 83.38252728 59.99107337 84.55859375 61.77539062 C89.87640243 69.84762421 95.18810987 77.92387112 100.5 86 C107.51672179 96.66785995 114.53603338 107.33400405 121.56045532 117.99679565 C126.09593868 124.88152634 130.62941803 131.76757439 135.16220093 138.65408325 C138.29937772 143.41952253 141.43994877 148.18269775 144.5838623 152.94369507 C146.48875514 155.82945199 148.39118808 158.71682499 150.29309082 161.60455322 C151.15844213 162.91725254 152.02483871 164.22926361 152.89245605 165.54046631 C153.29629517 166.15085754 153.70013428 166.76124878 154.11621094 167.39013672 C154.63752594 168.17697342 154.63752594 168.17697342 155.16937256 168.97970581 C160.34795325 176.89047927 165.118384 184.86397333 170 193 C170 129.31 170 65.62 170 0 C181.55 0 193.1 0 205 0 C205 85.8 205 171.6 205 260 C191.14 260 177.28 260 163 260 C155.13104261 248.75863231 155.13104261 248.75863231 151.671875 243.46484375 C151.28966797 242.88109482 150.90746094 242.29734589 150.51367188 241.69590759 C149.68955466 240.43693227 148.86612437 239.17750707 148.04333496 237.91766357 C145.74062842 234.39209924 143.4323245 230.8701993 141.125 227.34765625 C140.38766632 226.22151917 140.38766632 226.22151917 139.63543701 225.07263184 C133.69069479 215.99551831 127.71987696 206.93559316 121.75 197.875 C119.44521622 194.3763655 117.14056969 190.8776406 114.8359375 187.37890625 C114.26507416 186.5122937 113.69421082 185.64568115 113.10604858 184.75280762 C106.16369106 174.21322243 99.22756056 163.66954181 92.29199219 153.12548828 C91.78361816 152.35261475 91.27524414 151.57974121 90.75146484 150.78344727 C89.72509159 149.22306714 88.6987244 147.66268303 87.67236328 146.10229492 C83.94162078 140.43069349 80.20934111 134.76010526 76.4765625 129.08984375 C71.74909142 121.90856187 67.02392804 114.72576772 62.30136108 107.54125977 C59.55844259 103.36872415 56.81292365 99.19792202 54.0645752 95.02896118 C52.48603108 92.63313205 50.91010542 90.23558968 49.33496094 87.83752441 C48.29577976 86.25712253 47.25343081 84.67880497 46.2109375 83.10058594 C45.58960938 82.15344727 44.96828125 81.20630859 44.328125 80.23046875 C43.8012207 79.43020264 43.27431641 78.62993652 42.73144531 77.80541992 C40.35231999 73.95057939 38.199916 69.95984879 36 66 C36 130.02 36 194.04 36 260 C24.12 260 12.24 260 0 260 C0 174.2 0 88.4 0 0 Z " fill="#272727" transform="translate(825,25)"/>
<path d="M0 0 C2.16768271 -0.00217882 4.33484874 -0.02037033 6.50244141 -0.03930664 C36.13139919 -0.16039124 61.24295888 9.40349046 83.93603516 28.18530273 C85.21800781 29.18883789 85.21800781 29.18883789 86.52587891 30.21264648 C108.86318264 48.49520464 119.09383664 79.00489397 122.21923828 106.69433594 C125.64839649 143.56116179 124.66443505 183.35151535 105.93603516 216.18530273 C105.39333984 217.1662793 104.85064453 218.14725586 104.29150391 219.15795898 C89.70410288 243.82521863 63.5506323 260.17579282 36.30712891 267.41186523 C2.73549245 275.11428009 -34.19701572 272.12633387 -64.06396484 254.18530273 C-69.30550439 250.8021867 -74.24890009 247.147189 -79.06396484 243.18530273 C-80.09521484 242.38092773 -81.12646484 241.57655273 -82.18896484 240.74780273 C-106.24305591 219.30828678 -116.52444305 187.07756509 -118.59863281 155.83935547 C-121.00007221 113.50229084 -117.92928725 69.59846459 -88.59130859 36.52514648 C-65.60243153 11.18446614 -33.61023695 -0.00376881 0 0 Z M-50.06396484 52.18530273 C-50.71880859 52.80791992 -51.37365234 53.43053711 -52.04833984 54.07202148 C-62.41314521 64.65077925 -67.93162848 80.00042815 -71.06396484 94.18530273 C-71.30735596 95.24007812 -71.30735596 95.24007812 -71.55566406 96.31616211 C-78.94378968 130.13837599 -78.22229899 177.48478063 -59.06396484 207.41967773 C-47.19861427 223.82723283 -32.99755644 235.88868428 -12.48974609 239.65405273 C-11.35923828 239.82936523 -10.22873047 240.00467773 -9.06396484 240.18530273 C-8.08814453 240.33999023 -7.11232422 240.49467773 -6.10693359 240.65405273 C13.53932132 243.01912857 31.91087132 237.17857545 47.48681641 225.22827148 C67.12851788 208.76345485 75.40337703 183.99650011 77.93603516 159.18530273 C78.37007265 152.20627329 78.37010268 145.22288653 78.32714844 138.23291016 C78.31103201 135.12219544 78.327115 132.01277594 78.34619141 128.90209961 C78.37483535 102.12717137 73.79668178 75.14645281 55.93603516 54.18530273 C55.21416016 53.19530273 54.49228516 52.20530273 53.74853516 51.18530273 C42.77155523 38.22235604 26.01523127 31.50932138 9.46972656 29.95336914 C-13.88683415 28.51541425 -33.59413501 35.3456414 -50.06396484 52.18530273 Z " fill="#272727" transform="translate(934.06396484375,448.814697265625)"/>
<path d="M0 0 C1.16568512 -0.01469078 1.16568512 -0.01469078 2.35491943 -0.02967834 C35.08752517 -0.35737962 64.5155971 3.1328456 89.7421875 26.23828125 C105.2917743 41.59165875 109.38462922 56.51734878 110.7421875 78.23828125 C96.2221875 78.23828125 81.7021875 78.23828125 66.7421875 78.23828125 C65.7521875 72.29828125 64.7621875 66.35828125 63.7421875 60.23828125 C58.89665447 48.12444867 51.6627592 40.66922222 39.7421875 35.23828125 C21.71132444 28.25260973 -2.73168389 28.41444167 -20.6484375 35.59765625 C-26.00094283 38.10583508 -30.45815879 40.60745329 -34.2578125 45.23828125 C-34.9384375 45.93953125 -35.6190625 46.64078125 -36.3203125 47.36328125 C-42.42722199 56.42514694 -43.47232964 66.05967117 -41.890625 76.7109375 C-39.98326343 84.11829374 -34.96859011 90.34760623 -28.48095703 94.32861328 C-13.06310587 102.59108983 4.67376319 107.09617254 21.46875 111.61328125 C88.93153354 129.76805845 88.93153354 129.76805845 106.28515625 156.6640625 C116.2901665 174.34047471 118.52896489 195.51144156 113.64697266 215.12890625 C110.41180412 226.73983695 104.26516102 235.83106968 95.7421875 244.23828125 C94.71158203 245.28435547 94.71158203 245.28435547 93.66015625 246.3515625 C77.92553127 261.38557338 55.82612939 267.50152867 34.7421875 270.23828125 C33.75863281 270.36847656 32.77507812 270.49867188 31.76171875 270.6328125 C-3.17052705 274.32804301 -40.86766109 268.93813091 -69.1328125 246.86328125 C-82.23861892 235.60498939 -89.60808669 221.19652644 -92.2578125 204.23828125 C-92.2578125 200.27828125 -92.2578125 196.31828125 -92.2578125 192.23828125 C-77.7378125 192.23828125 -63.2178125 192.23828125 -48.2578125 192.23828125 C-47.5978125 197.51828125 -46.9378125 202.79828125 -46.2578125 208.23828125 C-45.03642707 211.72795391 -44.1040967 214.19374637 -42.2578125 217.23828125 C-41.64292969 218.26308594 -41.64292969 218.26308594 -41.015625 219.30859375 C-33.6086542 230.31443172 -21.14629105 235.58789286 -8.5546875 238.328125 C11.73711692 242.17860932 35.62589729 241.65557417 53.6796875 230.48828125 C62.26582674 224.15397853 68.69172895 215.85130283 70.7421875 205.23828125 C71.39902826 196.08558212 71.05211284 188.49634988 66.7421875 180.23828125 C66.45085937 179.53058594 66.15953125 178.82289063 65.859375 178.09375 C64.46070886 175.7707905 63.20524316 175.28924673 60.7421875 174.23828125 C59.6696875 173.51640625 58.5971875 172.79453125 57.4921875 172.05078125 C39.20774839 160.70980003 17.18663673 155.86815687 -3.31445312 150.11499023 C-63.89461665 133.10894132 -63.89461665 133.10894132 -78.69140625 108.21875 C-88.05289034 90.40625035 -89.90512749 70.24988067 -84.29296875 50.9140625 C-78.11343712 33.33256679 -64.64613508 19.72142889 -48.2578125 11.23828125 C-33.29016429 4.09425426 -16.59092619 0.17259756 0 0 Z " fill="#272727" transform="translate(1424.2578125,448.76171875)"/>
<path d="M0 0 C1.16568512 -0.01469078 1.16568512 -0.01469078 2.35491943 -0.02967834 C35.08752517 -0.35737962 64.5155971 3.1328456 89.7421875 26.23828125 C105.2917743 41.59165875 109.38462922 56.51734878 110.7421875 78.23828125 C96.2221875 78.23828125 81.7021875 78.23828125 66.7421875 78.23828125 C65.7521875 72.29828125 64.7621875 66.35828125 63.7421875 60.23828125 C58.89665447 48.12444867 51.6627592 40.66922222 39.7421875 35.23828125 C21.71132444 28.25260973 -2.73168389 28.41444167 -20.6484375 35.59765625 C-26.00094283 38.10583508 -30.45815879 40.60745329 -34.2578125 45.23828125 C-34.9384375 45.93953125 -35.6190625 46.64078125 -36.3203125 47.36328125 C-42.42722199 56.42514694 -43.47232964 66.05967117 -41.890625 76.7109375 C-39.98326343 84.11829374 -34.96859011 90.34760623 -28.48095703 94.32861328 C-13.06310587 102.59108983 4.67376319 107.09617254 21.46875 111.61328125 C88.93153354 129.76805845 88.93153354 129.76805845 106.28515625 156.6640625 C116.2901665 174.34047471 118.52896489 195.51144156 113.64697266 215.12890625 C110.41180412 226.73983695 104.26516102 235.83106968 95.7421875 244.23828125 C94.71158203 245.28435547 94.71158203 245.28435547 93.66015625 246.3515625 C77.92553127 261.38557338 55.82612939 267.50152867 34.7421875 270.23828125 C33.75863281 270.36847656 32.77507812 270.49867188 31.76171875 270.6328125 C-3.17052705 274.32804301 -40.86766109 268.93813091 -69.1328125 246.86328125 C-82.23861892 235.60498939 -89.60808669 221.19652644 -92.2578125 204.23828125 C-92.2578125 200.27828125 -92.2578125 196.31828125 -92.2578125 192.23828125 C-77.7378125 192.23828125 -63.2178125 192.23828125 -48.2578125 192.23828125 C-47.5978125 197.51828125 -46.9378125 202.79828125 -46.2578125 208.23828125 C-45.03642707 211.72795391 -44.1040967 214.19374637 -42.2578125 217.23828125 C-41.64292969 218.26308594 -41.64292969 218.26308594 -41.015625 219.30859375 C-33.6086542 230.31443172 -21.14629105 235.58789286 -8.5546875 238.328125 C11.73711692 242.17860932 35.62589729 241.65557417 53.6796875 230.48828125 C62.26582674 224.15397853 68.69172895 215.85130283 70.7421875 205.23828125 C71.39902826 196.08558212 71.05211284 188.49634988 66.7421875 180.23828125 C66.45085937 179.53058594 66.15953125 178.82289063 65.859375 178.09375 C64.46070886 175.7707905 63.20524316 175.28924673 60.7421875 174.23828125 C59.6696875 173.51640625 58.5971875 172.79453125 57.4921875 172.05078125 C39.20774839 160.70980003 17.18663673 155.86815687 -3.31445312 150.11499023 C-63.89461665 133.10894132 -63.89461665 133.10894132 -78.69140625 108.21875 C-88.05289034 90.40625035 -89.90512749 70.24988067 -84.29296875 50.9140625 C-78.11343712 33.33256679 -64.64613508 19.72142889 -48.2578125 11.23828125 C-33.29016429 4.09425426 -16.59092619 0.17259756 0 0 Z " fill="#272727" transform="translate(1186.2578125,448.76171875)"/>
<path d="M0 0 C14.19 0 28.38 0 43 0 C43.33 34.65 43.66 69.3 44 105 C46.64 102.36 49.28 99.72 52 97 C59.35925271 91.5671138 67.20801411 87.51389612 76 85 C76.73863281 84.78730469 77.47726562 84.57460937 78.23828125 84.35546875 C102.23773681 78.59394142 127.9085328 82.49746841 149 95 C169.5011717 108.74539903 181.10913523 130.75096432 186.3125 154.375 C191.35344392 184.41698904 188.43996444 218.1841937 170.5078125 243.64453125 C168.12958019 246.8754059 165.60317088 249.94785769 163 253 C162.43925781 253.67417969 161.87851563 254.34835937 161.30078125 255.04296875 C151.0559226 266.32005497 133.89787364 274.80242094 119 277 C117.700625 277.20625 116.40125 277.4125 115.0625 277.625 C92.91447072 279.70861251 71.62544125 277.04841635 53.484375 263.09375 C44.08695652 255.17391304 44.08695652 255.17391304 42 251 C41.34 258.59 40.68 266.18 40 274 C26.8 274 13.6 274 0 274 C0 183.58 0 93.16 0 0 Z M54 126 C52.33867797 127.67188128 50.8099908 129.3201889 49.38043213 131.19270325 C48 133 48 133 46.67572021 134.4719696 C41.24848895 141.40052834 42.23815194 150.10667963 42.265625 158.45703125 C42.25716311 160.16803084 42.24751958 161.87902495 42.23675537 163.5900116 C42.2204067 167.16836859 42.22303209 170.74610642 42.23828125 174.32446289 C42.25553902 178.88427056 42.21845804 183.44176938 42.16601944 188.00124073 C42.13274812 191.53352163 42.13236961 195.06525801 42.14116669 198.59766197 C42.14080947 200.27721624 42.12968403 201.95680752 42.10706329 203.63620949 C41.98443347 214.13461303 42.99409866 221.63796447 50 230 C50.6783062 230.86456566 50.6783062 230.86456566 51.37031555 231.74659729 C59.66823178 241.80529967 71.95038878 248.90312946 85.03393555 250.2019043 C87.11095205 250.30236909 89.17067741 250.32909034 91.25 250.3125 C91.98798828 250.30758545 92.72597656 250.3026709 93.48632812 250.29760742 C105.90429061 250.03462929 117.03092686 246.26591822 126.3125 237.84375 C144.22682983 218.27068593 144.98736569 190.91818457 144 166 C142.66761286 148.70471382 135.61562692 131.57657133 122.9453125 119.53125 C102.17572332 103.18249707 72.08509672 109.00118344 54 126 Z " fill="#272727" transform="translate(1652,11)"/>
<path d="M0 0 C14.19 0 28.38 0 43 0 C43.33 55.44 43.66 110.88 44 168 C51.88876039 161.14058224 51.88876039 161.14058224 58 153 C58.66 153 59.32 153 60 153 C60.20238281 152.46890625 60.40476562 151.9378125 60.61328125 151.390625 C62.60453012 147.95782413 65.34466874 145.49103174 68.1875 142.75 C72.40022199 138.62000431 76.44295516 134.45805534 80.26171875 129.95703125 C83.21725063 126.62956727 86.43281724 123.56035951 89.59765625 120.43359375 C91.63714373 118.36757635 93.555078 116.26994451 95.4375 114.0625 C98.74008606 110.19777163 102.32396169 106.64651769 105.93969727 103.07983398 C109.24840315 99.79859099 112.36796656 96.41608163 115.3671875 92.8515625 C116.17542969 91.93503906 116.17542969 91.93503906 117 91 C117.66362549 90.14688232 118.32725098 89.29376465 119.01098633 88.41479492 C123.17572664 85.05014194 126.26108541 85.35777392 131.45703125 85.51171875 C132.35999435 85.51879349 133.26295746 85.52586823 134.19328308 85.53315735 C137.06721088 85.56106681 139.93916472 85.62379768 142.8125 85.6875 C144.76494575 85.71258738 146.71742215 85.73539978 148.66992188 85.75585938 C153.44737102 85.81088211 158.22335126 85.89713002 163 86 C161.57925676 89.245613 159.86237319 91.3626159 157.33203125 93.828125 C156.60306641 94.54613281 155.87410156 95.26414062 155.12304688 96.00390625 C154.36056641 96.74511719 153.59808594 97.48632812 152.8125 98.25 C146.48915402 104.42239547 146.48915402 104.42239547 140.54296875 110.953125 C135.69557361 116.59600796 130.32550375 121.71913296 125.02734375 126.93359375 C120.77101704 131.14892855 116.7053169 135.42796944 112.8046875 139.97265625 C109.30193869 143.90756238 105.5042986 147.55724728 101.75 151.25 C100.15910388 152.81531901 98.57047132 154.38294269 96.984375 155.953125 C96.29053711 156.63536133 95.59669922 157.31759766 94.88183594 158.02050781 C93.07772259 159.91824406 91.5230309 161.87298807 90 164 C90.3717334 164.47719482 90.7434668 164.95438965 91.12646484 165.44604492 C103.39704586 181.20116843 103.39704586 181.20116843 109 188.5 C112.97898999 193.68315801 116.98537918 198.84439862 121 204 C127.48226799 212.3255216 133.92074101 220.68336578 140.34375 229.0546875 C145.20739952 235.38690652 150.09520832 241.69958413 155 248 C156.19276548 249.53380973 157.38547456 251.06766332 158.578125 252.6015625 C160.73072933 255.37005754 162.88724402 258.13542217 165.046875 260.8984375 C165.94809697 262.05715146 166.84915042 263.21599651 167.75 264.375 C168.52859375 265.37273437 169.3071875 266.37046875 170.109375 267.3984375 C171.69165271 269.57570393 172.84364853 271.59061429 174 274 C166.77861908 274.30580756 159.55892044 274.51501688 152.33251953 274.65917969 C149.87810899 274.71930353 147.42412432 274.8010328 144.97119141 274.90527344 C123.44988076 275.79653356 123.44988076 275.79653356 118.25610352 271.4753418 C115.60622053 268.63111794 113.8186442 265.42943576 112 262 C110.59074021 260.08308135 109.15649494 258.18403524 107.6875 256.3125 C106.95015625 255.31734375 106.2128125 254.3221875 105.453125 253.296875 C102.65481966 249.52123732 99.79652903 245.79225102 96.9375 242.0625 C91.9484498 235.54916153 86.97037754 229.02759985 82 222.5 C75.01212662 213.32403875 68.01021841 204.15889837 61 195 C59.38455227 196.3345003 57.77820317 197.68088102 56.20675659 199.06692505 C54.65585902 200.42548052 53.06659994 201.74086946 51.45169067 203.02267456 C46.19601614 207.57367221 43.38304665 210.85790155 42.77294922 217.91845703 C42.73280575 220.54507392 42.74382463 223.13521777 42.8046875 225.7578125 C42.80089205 227.15601416 42.7926868 228.55421008 42.78030396 229.95236206 C42.75965559 233.59973759 42.79815837 237.24407956 42.84979248 240.89105225 C42.89192921 244.62530521 42.87756592 248.35933462 42.8671875 252.09375 C42.85097305 259.39835985 42.92774355 266.69359761 43 274 C28.81 274 14.62 274 0 274 C0 183.58 0 93.16 0 0 Z " fill="#272727" transform="translate(2336,11)"/>
<path d="M0 0 C1.20398437 0.36351563 2.40796875 0.72703125 3.6484375 1.1015625 C22.75849536 7.41725326 38.64174689 20.92706974 48.37109375 38.625 C58.68383155 59.99239919 59 79.84458844 59 104 C12.47 104 -34.06 104 -82 104 C-75.99179082 136.05987238 -75.99179082 136.05987238 -55.75 159.375 C-41.24127457 168.37601947 -23.88848113 168.35545019 -7.76171875 164.90234375 C7.19921152 161.31358477 18.36251287 151.72763533 29 141 C48.63240682 152.89438718 48.63240682 152.89438718 56 158 C48.54035594 173.54921362 29.51912501 184.08492367 14 190 C-12.79496917 199.2876282 -46.51800243 199.12871558 -72.75 187.6875 C-74.51314468 186.81782294 -76.26312857 185.92102931 -78 185 C-78.98613281 184.48566406 -79.97226563 183.97132813 -80.98828125 183.44140625 C-101.22709529 172.30620106 -114.63316152 152.92598763 -121.39794922 131.12158203 C-129.642471 102.06850245 -126.88098884 68.304863 -113.046875 41.5234375 C-101.82950247 21.51137941 -83.36813863 6.53854147 -61.28295898 0.28637695 C-42.23037793 -4.89990982 -19.00189819 -5.77916612 0 0 Z M-67.25 41.5 C-70.36510838 45.67053524 -72.67417849 50.02701937 -74.8125 54.75 C-75.09061523 55.35650391 -75.36873047 55.96300781 -75.65527344 56.58789062 C-78.51206141 63.34535987 -79.39529914 69.51139597 -81 77 C-48.99 77 -16.98 77 16 77 C16 59.67559335 13.13212665 47.64883151 1.17578125 35.125 C-7.25324639 26.89270012 -18.01304855 24.60481003 -29.5 24.5 C-44.93173247 24.70122382 -56.95497494 29.76248582 -67.25 41.5 Z " fill="#272727" transform="translate(1555,95)"/>
<path d="M0 0 C20.6700108 17.86729747 30.48207544 41.82005832 32.5234375 68.5390625 C33.74115652 88.72536473 31.79651326 108.91420685 22.8125 127.25 C22.37164063 128.17039063 21.93078125 129.09078125 21.4765625 130.0390625 C10.85787853 150.86576311 -7.87346508 165.96309249 -29.8515625 173.5078125 C-59.7189943 181.99645101 -93.03097713 180.49526181 -120.41601562 165.27587891 C-124.55921494 162.87652341 -128.41068136 160.18516805 -132.1875 157.25 C-132.77273437 156.82847656 -133.35796875 156.40695312 -133.9609375 155.97265625 C-152.46548287 141.68158717 -161.52671462 118.05094538 -164.79492188 95.703125 C-165.44481275 89.98667194 -165.52804577 84.31108206 -165.5 78.5625 C-165.49436035 77.34079102 -165.4887207 76.11908203 -165.48291016 74.86035156 C-165.14488702 49.4985758 -158.153978 27.58092126 -141.1875 8.25 C-140.53394531 7.50105469 -139.88039063 6.75210938 -139.20703125 5.98046875 C-104.95167687 -30.71710602 -38.02770009 -30.30706993 0 0 Z M-105.83203125 23.22265625 C-122.35922769 44.46407787 -123.22312978 72.50953108 -120.91943359 98.24462891 C-118.77822893 113.51774792 -110.50338 130.88877895 -98.25 140.5625 C-85.74709767 149.20000123 -71.22438769 152.27385685 -56.19921875 149.59375 C-47.42927132 147.78829466 -40.30050006 144.85418187 -33.1875 139.25 C-32.54554688 138.74984375 -31.90359375 138.2496875 -31.2421875 137.734375 C-18.6147842 126.52259987 -12.36070344 106.4956088 -11.1875 90.25 C-10.02621273 65.01541497 -12.3774929 41.25933103 -29.1875 21.25 C-39.55601755 11.04450945 -51.63187163 6.84144719 -66 6.9375 C-67.32439087 6.94595947 -67.32439087 6.94595947 -68.67553711 6.95458984 C-83.35796444 7.22756272 -95.64797309 12.45572672 -105.83203125 23.22265625 Z " fill="#272727" transform="translate(2262.1875,112.75)"/>
<path d="M0 0 C20.6700108 17.86729747 30.48207544 41.82005832 32.5234375 68.5390625 C33.74115652 88.72536473 31.79651326 108.91420685 22.8125 127.25 C22.37164063 128.17039063 21.93078125 129.09078125 21.4765625 130.0390625 C10.85787853 150.86576311 -7.87346508 165.96309249 -29.8515625 173.5078125 C-59.7189943 181.99645101 -93.03097713 180.49526181 -120.41601562 165.27587891 C-124.55921494 162.87652341 -128.41068136 160.18516805 -132.1875 157.25 C-132.77273438 156.82847656 -133.35796875 156.40695312 -133.9609375 155.97265625 C-152.46548287 141.68158717 -161.52671462 118.05094538 -164.79492188 95.703125 C-165.44481275 89.98667194 -165.52804577 84.31108206 -165.5 78.5625 C-165.49436035 77.34079102 -165.4887207 76.11908203 -165.48291016 74.86035156 C-165.14488702 49.4985758 -158.153978 27.58092126 -141.1875 8.25 C-140.53394531 7.50105469 -139.88039063 6.75210938 -139.20703125 5.98046875 C-104.95167687 -30.71710602 -38.02770009 -30.30706993 0 0 Z M-105.83203125 23.22265625 C-122.35922769 44.46407787 -123.22312978 72.50953108 -120.91943359 98.24462891 C-118.77822893 113.51774792 -110.50338 130.88877895 -98.25 140.5625 C-85.74709767 149.20000123 -71.22438769 152.27385685 -56.19921875 149.59375 C-47.42927132 147.78829466 -40.30050006 144.85418187 -33.1875 139.25 C-32.54554688 138.74984375 -31.90359375 138.2496875 -31.2421875 137.734375 C-18.6147842 126.52259987 -12.36070344 106.4956088 -11.1875 90.25 C-10.02621273 65.01541497 -12.3774929 41.25933103 -29.1875 21.25 C-39.55601755 11.04450945 -51.63187163 6.84144719 -66 6.9375 C-67.32439087 6.94595947 -67.32439087 6.94595947 -68.67553711 6.95458984 C-83.35796444 7.22756272 -95.64797309 12.45572672 -105.83203125 23.22265625 Z " fill="#272727" transform="translate(2035.1875,112.75)"/>
<path d="M0 0 C20.6700108 17.86729747 30.48207544 41.82005832 32.5234375 68.5390625 C33.74115652 88.72536473 31.79651326 108.91420685 22.8125 127.25 C22.37164063 128.17039063 21.93078125 129.09078125 21.4765625 130.0390625 C10.85787853 150.86576311 -7.87346508 165.96309249 -29.8515625 173.5078125 C-59.7189943 181.99645101 -93.03097713 180.49526181 -120.41601562 165.27587891 C-124.55921494 162.87652341 -128.41068136 160.18516805 -132.1875 157.25 C-132.77273438 156.82847656 -133.35796875 156.40695312 -133.9609375 155.97265625 C-152.46548287 141.68158717 -161.52671462 118.05094538 -164.79492188 95.703125 C-165.44481275 89.98667194 -165.52804577 84.31108206 -165.5 78.5625 C-165.49436035 77.34079102 -165.4887207 76.11908203 -165.48291016 74.86035156 C-165.14488702 49.4985758 -158.153978 27.58092126 -141.1875 8.25 C-140.53394531 7.50105469 -139.88039063 6.75210938 -139.20703125 5.98046875 C-104.95167687 -30.71710602 -38.02770009 -30.30706993 0 0 Z M-105.83203125 23.22265625 C-122.35922769 44.46407787 -123.22312978 72.50953108 -120.91943359 98.24462891 C-118.77822893 113.51774792 -110.50338 130.88877895 -98.25 140.5625 C-85.74709767 149.20000123 -71.22438769 152.27385685 -56.19921875 149.59375 C-47.42927132 147.78829466 -40.30050006 144.85418187 -33.1875 139.25 C-32.54554688 138.74984375 -31.90359375 138.2496875 -31.2421875 137.734375 C-18.6147842 126.52259987 -12.36070344 106.4956088 -11.1875 90.25 C-10.02621273 65.01541497 -12.3774929 41.25933103 -29.1875 21.25 C-39.55601755 11.04450945 -51.63187163 6.84144719 -66 6.9375 C-67.32439087 6.94595947 -67.32439087 6.94595947 -68.67553711 6.95458984 C-83.35796444 7.22756272 -95.64797309 12.45572672 -105.83203125 23.22265625 Z " fill="#272727" transform="translate(1241.1875,112.75)"/>
<path d="M0 0 C13.86 0 27.72 0 42 0 C42 15.18 42 30.36 42 46 C55.53 46 69.06 46 83 46 C83 54.58 83 63.16 83 72 C69.47 72 55.94 72 42 72 C42.08559871 87.34304616 42.17927217 102.68599666 42.28752708 118.02889824 C42.33754119 125.153684 42.38398487 132.2784589 42.421875 139.40332031 C42.4549287 145.6170059 42.49483261 151.83060431 42.54279006 158.04419339 C42.5679229 161.3309243 42.58872008 164.61758776 42.60334396 167.90438461 C42.62029497 171.58335506 42.64935181 175.26204995 42.68115234 178.94091797 C42.68331253 180.01770309 42.68547272 181.09448822 42.68769836 182.2039032 C42.67446434 193.97532484 42.67446434 193.97532484 47.25 204.5 C53.13783746 209.85257951 59.78531109 209.29227308 67.35546875 209.203125 C71.53996334 208.96990558 75.00455999 208.20617057 79 207 C80.32 207 81.64 207 83 207 C83 216.24 83 225.48 83 235 C62.46282309 241.16115307 41.84129667 242.82094333 22 233 C10.45557552 226.22135075 4.63479038 217.76836619 1 205 C0.25390404 201.10327244 -0.12418011 197.42190621 -0.12025452 193.45706177 C-0.12162918 192.38021622 -0.12300385 191.30337067 -0.12442017 190.19389343 C-0.11902725 188.44493523 -0.11902725 188.44493523 -0.11352539 186.66064453 C-0.11367142 185.42106491 -0.11381744 184.18148529 -0.1139679 182.90434265 C-0.11339199 179.51841818 -0.10838825 176.13255523 -0.10139394 172.74664164 C-0.09512847 169.2032378 -0.09455408 165.65983308 -0.09336853 162.11642456 C-0.09026462 155.41237391 -0.08206392 148.70833963 -0.07201904 142.00429618 C-0.06082868 134.36947991 -0.05534009 126.73466284 -0.05032361 119.0998404 C-0.03988051 103.39988252 -0.02154674 87.69994717 0 72 C-11.22 72 -22.44 72 -34 72 C-34 63.42 -34 54.84 -34 46 C-22.78 46 -11.56 46 0 46 C0 30.82 0 15.64 0 0 Z " fill="#272727" transform="translate(1322,51)"/>
</svg>
